<?xml version="1.0" encoding="UTF-8"?>
<!DOCTYPE svg PUBLIC "-//W3C//DTD SVG 1.1//EN" "http://www.w3.org/Graphics/SVG/1.1/DTD/svg11.dtd">
<svg xmlns="http://www.w3.org/2000/svg" version="1.1" width="96px" height="96px" style="shape-rendering:geometricPrecision; text-rendering:geometricPrecision; image-rendering:optimizeQuality; fill-rule:evenodd; clip-rule:evenodd" xmlns:xlink="http://www.w3.org/1999/xlink">
<g><path style="opacity:0.963" fill="#e99d1d" d="M 46.5,3.5 C 47.2389,3.36899 47.9056,3.53566 48.5,4C 52.7162,8.92761 57.0495,13.7609 61.5,18.5C 58.9135,19.48 56.2469,19.8134 53.5,19.5C 53.5,23.5 53.5,27.5 53.5,31.5C 49.1667,31.5 44.8333,31.5 40.5,31.5C 40.5,28.1667 40.5,24.8333 40.5,21.5C 41.9778,21.762 43.3112,21.4287 44.5,20.5C 40.8333,19.8333 37.1667,19.1667 33.5,18.5C 38.0772,13.6554 42.4106,8.65543 46.5,3.5 Z"/></g>
<g><path style="opacity:0.963" fill="#e99d1d" d="M 72.5,19.5 C 73.2389,19.369 73.9056,19.5357 74.5,20C 78.7162,24.9276 83.0495,29.7609 87.5,34.5C 84.9135,35.48 82.2469,35.8134 79.5,35.5C 79.5,39.5 79.5,43.5 79.5,47.5C 75.1667,47.5 70.8333,47.5 66.5,47.5C 66.5,44.1667 66.5,40.8333 66.5,37.5C 67.9778,37.762 69.3112,37.4287 70.5,36.5C 66.8333,35.8333 63.1667,35.1667 59.5,34.5C 64.0772,29.6554 68.4106,24.6554 72.5,19.5 Z"/></g>
<g><path style="opacity:0.994" fill="#eba41c" d="M 95.5,93.5 C 95.5,94.1667 95.5,94.8333 95.5,95.5C 63.5,95.5 31.5,95.5 -0.5,95.5C -0.5,94.8333 -0.5,94.1667 -0.5,93.5C 1.83333,93.5 4.16667,93.5 6.5,93.5C 6.5,92.1667 6.5,90.8333 6.5,89.5C 7.83333,89.5 9.16667,89.5 10.5,89.5C 10.5,81.5 10.5,73.5 10.5,65.5C 17.8333,65.5 25.1667,65.5 32.5,65.5C 32.5,73.5 32.5,81.5 32.5,89.5C 33.8333,89.5 35.1667,89.5 36.5,89.5C 36.5,70.8333 36.5,52.1667 36.5,33.5C 43.8333,33.5 51.1667,33.5 58.5,33.5C 58.5,52.1667 58.5,70.8333 58.5,89.5C 60.1667,89.5 61.8333,89.5 63.5,89.5C 63.5,76.1667 63.5,62.8333 63.5,49.5C 70.5,49.5 77.5,49.5 84.5,49.5C 84.5,62.8333 84.5,76.1667 84.5,89.5C 85.8333,89.5 87.1667,89.5 88.5,89.5C 88.5,90.8333 88.5,92.1667 88.5,93.5C 90.8333,93.5 93.1667,93.5 95.5,93.5 Z M 40.5,35.5 C 45.2137,35.1734 49.8804,35.5067 54.5,36.5C 50.2172,37.4922 45.8839,37.8256 41.5,37.5C 41.6666,54.5033 41.4999,71.5033 41,88.5C 40.5001,70.8365 40.3334,53.1698 40.5,35.5 Z M 66.5,51.5 C 71.2137,51.1734 75.8804,51.5067 80.5,52.5C 76.2172,53.4922 71.8839,53.8256 67.5,53.5C 67.6665,65.1714 67.4999,76.8381 67,88.5C 66.5001,76.1712 66.3335,63.8378 66.5,51.5 Z M 14.5,67.5 C 19.2137,67.1734 23.8804,67.5067 28.5,68.5C 24.2172,69.4922 19.8839,69.8256 15.5,69.5C 15.6662,75.8421 15.4995,82.1754 15,88.5C 14.5004,81.5079 14.3337,74.5079 14.5,67.5 Z"/></g>
<g><path style="opacity:0.963" fill="#e99d1d" d="M 20.5,35.5 C 21.2389,35.369 21.9056,35.5357 22.5,36C 26.7162,40.9276 31.0495,45.7609 35.5,50.5C 32.9135,51.48 30.2469,51.8134 27.5,51.5C 27.5,55.5 27.5,59.5 27.5,63.5C 23.1667,63.5 18.8333,63.5 14.5,63.5C 14.5,60.1667 14.5,56.8333 14.5,53.5C 15.9778,53.762 17.3112,53.4287 18.5,52.5C 14.8333,51.8333 11.1667,51.1667 7.5,50.5C 12.0772,45.6554 16.4106,40.6554 20.5,35.5 Z"/></g>
</svg>
